<svg viewBox="0 0 600 120" xmlns="http://www.w3.org/2000/svg"><path d="M41.35 26.3h-18.5v52c0 9.5 4.6 15.5 16 15.5h32.3v-17h-29.8V26.3zm69.4 69c20.4 0 35.6-15.1 35.6-35.2s-15.2-35.2-35.6-35.2c-20.4 0-35.6 15.1-35.6 35.2s15.2 35.2 35.6 35.2zm0-17.5c-9.4 0-16.6-7.7-16.6-17.7s7.2-17.7 16.6-17.7c9.4 0 16.6 7.7 16.6 17.7s-7.2 17.7-16.6 17.7zm77.2 17.5c20.4 0 35.6-15.1 35.6-35.2s-15.2-35.2-35.6-35.2c-20.4 0-35.6 15.1-35.6 35.2s15.2 35.2 35.6 35.2zm0-17.5c-9.4 0-16.6-7.7-16.6-17.7s7.2-17.7 16.6-17.7c9.4 0 16.6 7.7 16.6 17.7s-7.2 17.7-16.6 17.7zm63.6 16V52.2l23.8 37.7c2.4 3.8 6.6 5.4 11.2 5.4 5.9 0 11.5-4.2 11.5-11.4V26.3h-17.5v41.5l-23.8-37.7c-2.4-3.8-6.5-5.4-11.2-5.4-5.9 0-11.5 4.3-11.5 11.5v57.6h17.5z" fill="#26bfb3"/><path d="M321.35 95c5.9 0 10.8-4.9 10.8-10.8s-4.9-10.8-10.8-10.8-10.8 4.9-10.8 10.8 4.9 10.8 10.8 10.8z" fill="#ff8095"/><path d="M361.95 93.8l6.5-47.7 10.6 39.5c1.5 5.7 6.5 8.5 12 8.5 5.6 0 10.3-2.9 12-8.9l10.7-39 5.4 47.6h18.7l-8-56.4c-1.2-8.2-6.6-12.6-14.5-12.6-7.2 0-13.3 3.3-15.2 10.8l-9.1 35.5-9.2-35.8c-1.9-7.5-7.8-10.5-14.8-10.5-8.1 0-13.7 4.3-15 12.3l-8.9 56.7h18.8zm118.5 1.5c20.4 0 35.6-15.1 35.6-35.2s-15.2-35.2-35.6-35.2c-20.4 0-35.6 15.1-35.6 35.2s15.2 35.2 35.6 35.2zm0-17.5c-9.4 0-16.6-7.7-16.6-17.7s7.2-17.7 16.6-17.7c9.4 0 16.6 7.7 16.6 17.7s-7.2 17.7-16.6 17.7zm96.7 16V77.3h-32.6v-9h29.8V51.8h-29.8v-9h32.1V26.3h-34.6c-11.4 0-16 6-16 15.5v36.5c0 9.5 4.6 15.5 16 15.5h35.1z" fill="#fed300"/></svg>